{"title":"Eva (1962) DVDRip H264 K42","uid":6091402,"size":1464711160,"categoryP":"video","categoryS":"movies","magnet":"?xt=urn:btih:a067e647fe315185743477d17184043d1b991fac&amp;dn=Eva+%281962%29+DVDRip+H264+K42&amp;tr=udp%3A%2F%2Ftracker.openbittorrent.com%3A80&amp;tr=udp%3A%2F%2Fopen.demonii.com%3A1337&amp;tr=udp%3A%2F%2Ftracker.coppersurfer.tk%3A6969&amp;tr=udp%3A%2F%2Fexodus.desync.com%3A6969","seeders":0,"leechers":1,"uploader":"kepler42","files":-1,"time":1294581268,"description":" &lt;a href=&quot;http://www.imdb.com/title/tt0059160/&quot; rel=&quot;nofollow&quot; target=&quot;_NEW&quot;&gt;http://www.imdb.com/title/tt0059160/&lt;/a&gt;\n &lt;a href=&quot;\nhttp://image.bayimg.com/gachbaadg.jpg&quot; rel=&quot;nofollow&quot; target=&quot;_NEW&quot;&gt;\nhttp://image.bayimg.com/gachbaadg.jpg&lt;/a&gt;\n\n\nA raw Welsh novelist in Venice is humiliated by a money-loving Frenchwoman who erotically ensnares him.\n\nGreat Adaptation by Joseph Losey with Jeanne Moreau in her splendor, Stanley Baker and Virna Lisi \n\nNice encoding in B&amp;W\n\n\n\nCast \n  Jeanne Moreau......Eve Olivier  \n  Stanley Baker......Tyvian Jones  \n  Virna Lisi.........francesca Ferrara  \n  James Villiers.....Alan McCormick - a screenwriter  \n  Riccardo Garrone...Michele - a player  \n  Lisa Gastoni.......The red-headed Russian  \n\nCrew \n  Director: Joseph Losey\n  Writers: James Hadley Chase (novel) &amp; Hugo Butler\n\nScreens (Actual Screenshots)\n &lt;a href=&quot;\nhttp://img35.imageshack.us/img35/2906/vlcsnap2011010317h27m58.png&quot; rel=&quot;nofollow&quot; target=&quot;_NEW&quot;&gt;\nhttp://img35.imageshack.us/img35/2906/vlcsnap2011010317h27m58.png&lt;/a&gt; &lt;a href=&quot;\nhttp://img145.imageshack.us/img145/2456/vlcsnap2011010317h39m25.png&quot; rel=&quot;nofollow&quot; target=&quot;_NEW&quot;&gt;\nhttp://img145.imageshack.us/img145/2456/vlcsnap2011010317h39m25.png&lt;/a&gt; &lt;a href=&quot;\nhttp://img560.imageshack.us/img560/4972/vlcsnap2011010317h35m45.png&quot; rel=&quot;nofollow&quot; target=&quot;_NEW&quot;&gt;\nhttp://img560.imageshack.us/img560/4972/vlcsnap2011010317h35m45.png&lt;/a&gt; &lt;a href=&quot;\nhttp://img190.imageshack.us/img190/5400/vlcsnap2011010317h22m25.png&quot; rel=&quot;nofollow&quot; target=&quot;_NEW&quot;&gt;\nhttp://img190.imageshack.us/img190/5400/vlcsnap2011010317h22m25.png&lt;/a&gt; &lt;a href=&quot;\nhttp://img718.imageshack.us/img718/2475/vlcsnap2011010317h19m53.png&quot; rel=&quot;nofollow&quot; target=&quot;_NEW&quot;&gt;\nhttp://img718.imageshack.us/img718/2475/vlcsnap2011010317h19m53.png&lt;/a&gt;\n\n\nGeneral\nComplete name                    : Eva (1962) DVDRip H264 K42\\\\Eva (1962) DVDRip H264 K42.mp4\nFormat                           : MPEG-4\nFormat profile                   : Base Media\nCodec ID                         : isom\nFile size                        : 1.36 GiB\nDuration                         : 1h 44mn\nOverall bit rate                 : 1 860 Kbps\n\nVideo\nID                               : 1\nFormat                           : AVC\nFormat profile                   : &lt;a class=&quot;__cf_email__&quot; href=&quot;/cdn-cgi/l/email-protection&quot; data-cfemail=&quot;531e323a3d131f607d63&quot;&gt;[email&amp;#160;protected]&lt;/a&gt;&lt;script cf-hash='f9e31' type=&quot;text/javascript&quot;&gt;\n/* &lt;![CDATA[ */!function(){try{var t=&quot;currentScript&quot;in document?document.currentScript:function(){for(var t=document.getElementsByTagName(&quot;script&quot;),e=t.length;e--;)if(t[e].getAttribute(&quot;cf-hash&quot;))return t[e]}();if(t&amp;&amp;t.previousSibling){var e,r,n,i,c=t.previousSibling,a=c.getAttribute(&quot;data-cfemail&quot;);if(a){for(e=&quot;&quot;,r=parseInt(a.substr(0,2),16),n=2;a.length-n;n+=2)i=parseInt(a.substr(n,2),16)^r,e+=String.fromCharCode(i);e=document.createTextNode(e),c.parentNode.replaceChild(e,c)}}}catch(u){}}();/* ]]&gt; */&lt;/script&gt;\nFormat settings, CABAC           : Yes\nFormat settings, ReFrames        : 4 frames\nDuration                         : 1h 44mn\nBit rate mode                    : Variable\nBit rate                         : 1 700 Kbps\nMaximum bit rate                 : 6 000 Kbps\nWidth                            : 704 pixels\nHeight                           : 576 pixels\nPixel aspect ratio               : 16:11 (PAL-DVD)\nDisplay \nOriginal display aspect ratio    : 16:9\nFrame rate                       : 25.000 fps\nStandard                         : PAL\nColor space                      : YUV\nChroma subsampling               : 4:2:0\nBit depth                        : 8 bits\nScan type                        : Progressive\nBits/(Pixel*Frame)               : 0.168\nStream size                      : 1.24 GiB (91%)\n\nAudio\nID                               : 2\nFormat                           : AAC\nFormat profile                   : LC\nCodec ID                         : 40\nDuration                         : 1h 44mn\nBit rate mode                    : Constant\nBit rate                         : 160 Kbps\nChannel(s)                       : 2 channels\nChannel positions                : Front: L R\nSampling rate                    : 48.0 KHz\nStream size                      : 119 MiB (9%)\nLanguage                         : English\n\nSubTitle                         : French (.srt)\n                                 : Spanish(.srt)\n","torrent":{"xt":"urn:btih:a067e647fe315185743477d17184043d1b991fac","amp;dn":"Eva+%281962%29+DVDRip+H264+K42","amp;tr":["udp%3A%2F%2Ftracker.openbittorrent.com%3A80","udp%3A%2F%2Fopen.demonii.com%3A1337","udp%3A%2F%2Ftracker.coppersurfer.tk%3A6969","udp%3A%2F%2Fexodus.desync.com%3A6969"],"infoHash":"a067e647fe315185743477d17184043d1b991fac","infoHashBuffer":{"type":"Buffer","data":[160,103,230,71,254,49,81,133,116,52,119,209,113,132,4,61,27,153,31,172]},"announce":[],"urlList":[]}}